# xmcd
#
# Track frame offsets: 
#        150
#        19853
#        38529
#        55108
#        71085
#        87297
#        104979
#        122701
#        139221
#        159638
#        176357
#        193880
#        211002
#        227568
#        246770
#        264409
#        283657
#        302826
#        319304
#        336222
#
# Disc length: 4700 seconds
#
# Revision: 0
# Processed by: cddbd v1.5.1PL0 Copyright (c) Steve Scherf et al.
# Submitted via: ExactAudioCopy v0.95a3
#
DISCID=26125a14
DTITLE=Various Artist - Хит Парад. Осень 2000
DYEAR=2000
DGENRE=Pop
TTITLE0=Алла Пугачёва - Малолетка
TTITLE1=Маша Распутина - Купи Меня
TTITLE2=Михаил Шуфутинский - Тополя
TTITLE3=Наталья Сенчукова И Дюна - Дребедень
TTITLE4=Борис Моисеев - Аты-Баты
TTITLE5=Николай Трубач - Ни За Что
TTITLE6=Игорь Саруханов - Холодно
TTITLE7=Премьер-Министр - Поцелуй Во Сне
TTITLE8=Александр Буйнов - Люби, Как В Последний Раз
TTITLE9=Жасмин - Каприз
TTITLE10=Максим Леонидов - Любовь
TTITLE11=Вячеслав Быков - Малыш
TTITLE12=Мелисса - Открыта Моя Душа
TTITLE13=Саша - Война
TTITLE14=Дмитрий Маликов - Отпусти XX Век
TTITLE15=Юрий Лоза - К Тебе Москва
TTITLE16=Иванушки International - Беги
TTITLE17=DVD - Поцелуй В Ночи
TTITLE18=Хамелеон - Найди Меня
TTITLE19=Ольга Канайкина - Пусть Летят Года
EXTD=
EXTT0=
EXTT1=
EXTT2=
EXTT3=
EXTT4=
EXTT5=
EXTT6=
EXTT7=
EXTT8=
EXTT9=
EXTT10=
EXTT11=
EXTT12=
EXTT13=
EXTT14=
EXTT15=
EXTT16=
EXTT17=
EXTT18=
EXTT19=
PLAYORDER=
